<?xml version="1.0" encoding="utf-8"?>
<!-- Generator: Adobe Illustrator 23.1.0, SVG Export Plug-In . SVG Version: 6.00 Build 0)  -->
<svg version="1.1" id="Capa_1" xmlns="http://www.w3.org/2000/svg" xmlns:xlink="http://www.w3.org/1999/xlink" x="0px" y="0px"
	 viewBox="0 0 512 512" style="enable-background:new 0 0 512 512;" xml:space="preserve">
<style type="text/css">
	.st0{fill:#5766CB;}
	.st1{fill:#3D4FC3;}
</style>
<g>
	<g>
		<path class="st0" d="M325.8,159.8h23.4c3.4,0,6-2.2,6-5.2V83.8c0-2.9-2.6-5.2-6-5.2h-23.4c-80.6,0-145.8,55.6-145.8,124.3v18
			c0,1.9-1.8,3.4-4,3.4h-40.7c-3.4,0-6,2.2-6,5.2v70.9c0,2.9,2.6,5.2,6,5.2H176c2.2,0,4,1.5,4,3.4v139.8c0,2.9,2.6,5.2,6,5.2h83.2
			c3.4,0,6-2.2,6-5.2V309.1c0-1.9,1.8-3.4,4-3.4H320c3.4,0,6-2.2,6-5.2v-70.9c0-2.9-2.6-5.2-6-5.2h-40.7c-2.2,0-4-1.5-4-3.4v-18
			C275.3,179.2,297.8,159.8,325.8,159.8L325.8,159.8z"/>
	</g>
	<g>
		<g>
			<path class="st1" d="M247.9,309.1v139.8c0,2.9-2.6,5.2-6,5.2h29.4c3.4,0,6-2.2,6-5.2V309.1c0-1.9,1.8-3.4,4-3.4h-29.4
				C249.7,305.6,247.9,307.2,247.9,309.1L247.9,309.1z"/>
		</g>
		<g>
			<path class="st1" d="M322,224.6h-29.4c3.4,0,6,2.2,6,5.2v70.9c0,2.9-2.6,5.2-6,5.2H322c3.4,0,6-2.2,6-5.2v-70.9
				C328,226.8,325.4,224.6,322,224.6z"/>
		</g>
		<g>
			<path class="st1" d="M351.2,78.6h-23.4c-1.6,0-3.2,0-4.8,0.2c2.8,0.5,4.8,2.6,4.8,5v70.9c0,2.9-2.6,5.2-6,5.2h-23.4
				c-28,0-50.6,19.2-50.6,43.1v18c0,1.9,1.8,3.4,4,3.4h29.4c-2.2,0-4-1.5-4-3.4v-18c0-23.9,22.6-43.1,50.6-43.1h23.4
				c3.4,0,6-2.2,6-5.2V83.8C357.2,81,354.6,78.6,351.2,78.6z"/>
		</g>
	</g>
</g>
</svg>
