<?xml version="1.0" encoding="utf-8"?>
<!-- Generator: Adobe Illustrator 23.1.0, SVG Export Plug-In . SVG Version: 6.00 Build 0)  -->
<svg version="1.1" id="Capa_1" xmlns="http://www.w3.org/2000/svg" xmlns:xlink="http://www.w3.org/1999/xlink" x="0px" y="0px"
	 viewBox="0 0 512.1 512.1" style="enable-background:new 0 0 512.1 512.1;" xml:space="preserve">
<style type="text/css">
	.st0{fill:#5C6BC0;}
</style>
<g>
	<path class="st0" d="M249.9,85.6C150.6,86.1,70.5,168.4,71,269.5C71.4,347.7,120.5,417,193.4,442c8.9,1.7,12.2-4,12.2-8.8
		c0-4.3-0.1-15.9-0.2-31.1c-49.8,11-60.3-24.5-60.3-24.5c-3.3-11-10.3-20.5-19.8-26.8c-16.3-11.4,1.2-11.1,1.2-11.1
		c11.5,1.6,21.6,8.6,27.4,18.9c10.1,18.8,33.2,25.7,51.6,15.5c0.2-0.1,0.3-0.2,0.5-0.3c0.8-9.3,4.8-17.9,11.4-24.5
		c-39.7-4.6-81.4-20.3-81.4-90.4c-0.3-18.1,6.3-35.7,18.3-49.1c-5.5-15.8-4.8-33.1,1.8-48.4c0,0,15-4.9,49.2,18.7
		c29.3-8.2,60.3-8.2,89.6,0c34.2-23.7,49.2-18.7,49.2-18.7c6.6,15.3,7.2,32.6,1.8,48.4c12,13.4,18.5,30.9,18.2,49.1
		c0,70.2-41.8,85.7-81.7,90.2c8.6,9,13.1,21.3,12.1,33.9c0,24.4-0.2,44.1-0.2,50.1c0,4.9,3.2,10.6,12.3,8.8
		c94.1-32.4,144.5-136.3,112.6-232C394.6,135.9,326.6,86,249.9,85.6z"/>
	<path d="M199.8,442.3c-1.7,0-3.3-0.2-4.9-0.5C101,410.7,49.6,308.1,80.1,212.5S211.5,64.7,305.4,95.7S450.7,229.5,420.2,325
		c-17.5,54.9-59.6,98.1-113.5,116.4c-6.6,2-13.8,0.7-19.4-3.5c-4.5-3.9-7-9.5-6.9-15.5v-9.6c0-8.8,0.2-22.1,0.2-37.4
		c0.9-8.4-1.8-16.9-7.5-23.1c-4.7-4.1-5.2-11.3-1.2-16.1c1.8-2.2,4.4-3.6,7.3-3.9c34.6-3.9,66.6-15.5,66.6-73.2
		c0.2-14.2-4.9-27.9-14.3-38.3c-2.9-3.2-3.7-7.9-2.1-12c3.2-9.6,3.5-19.9,0.6-29.6c-11.5,3.1-22.3,8.3-31.7,15.6
		c-2.7,1.9-6.1,2.5-9.3,1.5c-12.7-3.5-25.9-5.3-39.1-5.4c-13.2,0-26.3,1.8-38.9,5.4c-3.2,0.9-6.6,0.3-9.3-1.6
		c-9.5-7.3-20.3-12.5-31.8-15.5c-2.8,9.7-2.6,20,0.7,29.6c1.6,4.1,0.8,8.7-2.1,12c-9.4,10.4-14.6,24.1-14.3,38.3
		c0,57.6,32,69.3,66.5,73.3c6.1,0.7,10.5,6.4,9.8,12.6c-0.3,2.8-1.6,5.4-3.7,7.2c-4.1,4.3-6.6,9.9-7,15.9c-0.5,3.9-3,7.2-6.5,8.8
		c-12.5,6.2-27,7.1-40.2,2.3c10.2,5.1,21.8,6,32.6,2.7c3.3-0.7,6.7,0.1,9.4,2.3c2.6,2.1,4.2,5.4,4.2,8.8l0.2,29.2
		c0.2,10.8-8.2,19.7-18.8,19.9C200.4,442.3,200.1,442.3,199.8,442.3L199.8,442.3z M249.9,108.4C163.2,108.6,93,180.4,93.3,268.7
		c0.2,67.2,41.7,127.1,103.8,149.9v-12.2c-24,4.1-47.5-9.6-56.2-32.8c-2.2-7.4-6.8-13.7-13-18.2c-4.8-3.2-15.4-10.6-12-21.4
		c2.2-6.8,8.1-10.5,18.4-10.6c14.8,1.7,27.9,10.4,35.4,23.5c5.2,11.1,18.1,16.1,29.2,11.4c0.5-2,1.1-4,1.8-5.9
		c-27.6-6-69-24.6-69-93.2c-0.3-17.5,5.3-34.6,15.8-48.4c-3.6-15.7-2.2-32.1,3.9-47c1.2-3.2,3.8-5.6,7-6.7
		c4.3-1.4,20.4-4.2,51.5,16.1c26.3-6.5,53.7-6.5,80,0c31.1-20.3,47.2-17.4,51.5-16.1c3.2,1,5.7,3.5,7,6.6
		c6.1,14.9,7.4,31.3,3.8,46.9c10.6,13.8,16.2,30.9,15.9,48.5c0,68.6-41.5,87.2-69.1,93.1c2.6,7.4,4,15.2,3.9,23.1
		c0,15.3,0,28.7-0.2,37.5v5.6C384.3,388.6,426.6,297,397.2,214C374.8,150.8,316,108.6,249.9,108.4z"/>
</g>
</svg>
