<?xml version="1.0" encoding="utf-8"?>
<!-- Generator: Adobe Illustrator 23.1.0, SVG Export Plug-In . SVG Version: 6.00 Build 0)  -->
<svg version="1.1" id="Capa_1" xmlns="http://www.w3.org/2000/svg" xmlns:xlink="http://www.w3.org/1999/xlink" x="0px" y="0px"
	 viewBox="0 0 512 512" style="enable-background:new 0 0 512 512;" xml:space="preserve">
<style type="text/css">
	.st0{fill:#EAAADD;stroke:#000000;stroke-width:6;stroke-miterlimit:10;}
	.st1{fill:#E490D0;stroke:#000000;stroke-width:6;stroke-miterlimit:10;}
	.st2{fill:#ECF4FF;stroke:#000000;stroke-width:6;stroke-miterlimit:10;}
</style>
<g>
	<g>
		<path class="st0" d="M351.6,428H151.4c-33.2,0-60.4-26.9-60.4-60.2V168.2c0-33.2,26.9-60.2,60.4-60.2h200.1
			c33.2,0,60.4,26.9,60.4,60.2v199.6C411.8,401.1,384.9,428,351.6,428z"/>
	</g>
	<g>
		<path class="st1" d="M371.9,111.5c2.3,6.3,3.5,13.3,3.5,20.4v199.6c0,33.2-26.9,60.2-60.4,60.2H115.1c-7.2,0-14-1.2-20.5-3.5
			c8.4,23.2,30.6,39.8,56.9,39.8h200.1c33.2,0,60.4-26.9,60.4-60.2V168.2C411.8,142.2,395.2,119.9,371.9,111.5L371.9,111.5z"/>
	</g>
	<g>
		<path class="st2" d="M251.6,344.6c-42.3,0-76.8-34.4-76.8-76.6c0-42.2,34.5-76.6,76.8-76.6c42.3,0,76.8,34.4,76.8,76.6
			S293.9,344.6,251.6,344.6L251.6,344.6z M251.6,217.6c-27.8,0-50.6,22.7-50.6,50.4c0,27.7,22.7,50.4,50.6,50.4s50.6-22.7,50.6-50.4
			C302.1,240.3,279.4,217.6,251.6,217.6z"/>
	</g>
	<g>
		<ellipse class="st2" cx="341.7" cy="178.1" rx="18.5" ry="18.5"/>
	</g>
</g>
</svg>
