<?xml version="1.0" encoding="utf-8"?>
<!-- Generator: Adobe Illustrator 23.1.0, SVG Export Plug-In . SVG Version: 6.00 Build 0)  -->
<svg version="1.1" id="Capa_1" xmlns="http://www.w3.org/2000/svg" xmlns:xlink="http://www.w3.org/1999/xlink" x="0px" y="0px"
	 viewBox="0 0 512 512" style="enable-background:new 0 0 512 512;" xml:space="preserve">
<style type="text/css">
	.st0{fill:#00AEEF;}
</style>
<g>
	<g>
		<path class="st0" d="M391.2,328.2c-5.8,0-11.5-0.4-16.9-0.9c-2.1-0.2-3.2-2.9-1.6-4.6l0,0c48.6-52.1,57.4-129.2,27.1-190.4
			c-1.9-3.8-7-4-9.2-0.5c-5.6,9.3-12.3,18.1-19.9,26.2c-26.1,28-59.4,44.2-93.9,48.8c-1.1,0.2-1.9-0.7-1.9-1.8
			c-2.5-47.3-40-84.9-86.2-84.9c-33.1,0-62,19.6-76.5,48.2c-0.5,1.3-1.8,2-3.2,2H67.9c-2.6,0-4.4,2.9-3.2,5.3
			c2.8,5.7,8.5,15.2,18.7,22.7c1.1,0.7,0.9,2.6-0.4,3.1l-17.4,8.4c-2.5,1.1-2.8,4.6-0.7,6.2c6.2,5.1,19,13.4,36.8,13.4
			c1.6,0,3,1.1,3.3,2.7c6.3,25.8,23.6,47.3,46.3,58.5c1.4,0.7,2.5,2,2.8,3.5c18.1,70.2,79.8,121.7,152.9,121.7
			c61,0,114-35.9,140.4-88.5c2.3-4.4-1.9-9.3-6.3-7.7C425.5,325.3,408.8,328.2,391.2,328.2L391.2,328.2z"/>
	</g>
	<g>
		<g>
			<path class="st0" d="M394.3,328.2c-28.4,44.9-77,74.4-132.5,74.4c-6.7,0-13.4-0.4-19.9-1.3c19.9,9.3,42.1,14.7,65.5,14.7
				c61,0,114-35.9,140.4-88.5c2.1-4.4-1.8-9.3-6.3-7.9C426.6,324.9,410.7,327.8,394.3,328.2L394.3,328.2z"/>
		</g>
	</g>
</g>
</svg>
