<?xml version="1.0" encoding="utf-8"?>
<!-- Generator: Adobe Illustrator 23.1.0, SVG Export Plug-In . SVG Version: 6.00 Build 0)  -->
<svg version="1.1" id="Capa_1" xmlns="http://www.w3.org/2000/svg" xmlns:xlink="http://www.w3.org/1999/xlink" x="0px" y="0px"
	 viewBox="0 0 512 512" style="enable-background:new 0 0 512 512;" xml:space="preserve">
<style type="text/css">
	.st0{fill-rule:evenodd;clip-rule:evenodd;fill:#FFFFFF;}
	.st1{fill-rule:evenodd;clip-rule:evenodd;fill:#FF0000;}
</style>
<g>
	<path class="st0" d="M264.6,260.4L222,236.4v48.2l0,48.2l42.7-24.1l42.7-24.1L264.6,260.4z"/>
	<path class="st1" d="M222,236.4l42.7,24.1l42.7,24.1l-42.7,24.1L222,332.7l0-48.2V236.4z M87.1,339.3c3.6,31.6,17.5,44.2,45.6,48.2
		c52.9,7.5,190,7.5,242.9,0c28.1-4,42-16.6,45.6-48.2c3.5-30.9,3.5-78.6,0-109.5c-3.6-31.6-17.5-44.2-45.6-48.2
		c-52.9-7.5-190-7.5-242.9,0c-28.1,4-42,16.6-45.6,48.2C83.5,260.6,83.5,308.4,87.1,339.3z"/>
	<path d="M305,386c-16.2,0.5-33.3,0.8-50.9,0.8c-50.9,0-95.9-2.1-120.4-5.6c-26.2-3.7-36.6-14.9-39.8-42.6
		c-3.5-30.3-3.5-77.8,0-108.2c3.2-27.7,13.6-38.9,39.8-42.6c4.3-0.6,9.3-1.2,14.9-1.7c3.8-0.4,6.5-3.5,6.2-6.9
		c-0.4-3.5-3.8-6-7.6-5.6c-5.8,0.6-11.1,1.2-15.6,1.8c-16.3,2.3-27.8,7.3-36,15.8c-8.5,8.7-13.4,20.7-15.3,38
		c-3.6,31.1-3.6,79.7,0,110.8c2,17.2,6.8,29.3,15.3,38c8.2,8.4,19.7,13.4,36,15.8c25.2,3.6,71,5.7,122.5,5.7c17.7,0,35-0.3,51.4-0.8
		c3.8-0.1,6.8-3,6.7-6.5C312,388.6,308.9,385.9,305,386z"/>
	<path d="M428,229.1c-2-17.2-6.8-29.3-15.3-38c-8.3-8.4-19.7-13.4-36.1-15.8c-25.2-3.6-71-5.7-122.5-5.7c-17.7,0-35,0.3-51.4,0.8
		c-3.8,0.1-6.8,3-6.7,6.5c0.1,3.5,3.3,6.2,7.1,6.1c16.2-0.5,33.3-0.8,50.9-0.8c50.9,0,95.9,2.1,120.4,5.6
		c26.2,3.7,36.6,14.9,39.8,42.6c3.5,30.3,3.5,77.8,0,108.2c-3.2,27.7-13.6,38.9-39.8,42.6c-4.3,0.6-9.3,1.2-14.9,1.7
		c-3.8,0.4-6.5,3.5-6.1,6.9c0.4,3.2,3.4,5.6,6.9,5.6c0.2,0,0.5,0,0.7,0c5.8-0.6,11.1-1.2,15.6-1.8c16.3-2.3,27.8-7.3,36.1-15.8
		c8.5-8.7,13.4-20.7,15.3-38C431.6,308.9,431.6,260.2,428,229.1z"/>
	<path d="M311,279.2L225.6,231c-2.1-1.2-4.8-1.3-7-0.1c-2.2,1.1-3.5,3.2-3.5,5.5v96.3c0,2.3,1.4,4.4,3.5,5.5c1,0.5,2.2,0.8,3.4,0.8
		c1.3,0,2.5-0.3,3.6-0.9l85.4-48.2c2-1.1,3.3-3.2,3.3-5.4C314.2,282.3,313,280.3,311,279.2z M228.9,321.4v-73.7l65.3,36.9
		L228.9,321.4z"/>
	<path d="M175.4,184.2c0.2,0,0.3,0,0.5,0c3.8-0.2,6.7-3.2,6.4-6.7c-0.3-3.5-3.5-6.1-7.3-5.9h0c-3.8,0.2-6.7,3.2-6.4,6.7
		C168.7,181.6,171.8,184.2,175.4,184.2z"/>
	<path d="M332.4,384.9c-3.8,0.2-6.7,3.2-6.4,6.7c0.2,3.3,3.3,5.9,6.9,5.9c0.2,0,0.3,0,0.5,0h0c3.8-0.2,6.7-3.2,6.4-6.7
		C339.5,387.3,336.2,384.7,332.4,384.9z"/>
</g>
</svg>
